<?xml version="1.0" encoding="utf-8"?>
<!DOCTYPE svg>
<svg version="1.1" xmlns="http://www.w3.org/2000/svg" xmlns:xlink="http://www.w3.org/1999/xlink" x="0px" y="0px" viewBox="0 0 1000 1000" enable-background="new 0 0 1000 1000" xml:space="preserve">
<g><g transform="translate(0.000000,511.000000) scale(0.100000,-0.100000)"><path fill="#6f8f4e" d="M1237,4982.9c-119-35.1-270.4-210.9-292-338c-21.6-124.4-5.4-175.8,238-724.7c97.4-221.7,178.5-413.7,178.5-427.3c0-13.5-40.6-75.7-89.2-137.9c-51.4-62.2-116.3-156.9-148.7-208.2c-29.7-51.4-116.3-156.8-189.3-232.6c-224.5-232.5-281.2-546.2-146-811.2c29.8-59.5,62.2-192,73-294.7c62.2-584.1,270.4-1060,835.6-1906.4L1886-382.2l-8.1-197.4c-5.4-170.4,5.4-221.7,64.9-346.2c116.3-238,378.6-411,632.8-419.1c51.4,0,110.9-45.9,219-175.8c216.3-254.2,970.8-987,1284.5-1249.3c146-121.7,283.9-259.6,300.2-300.2c48.7-113.6,221.7-297.5,338-354.2c54.1-29.8,154.1-62.2,216.3-70.3c78.4-13.5,213.6-83.8,416.4-216.3c384-251.5,727.4-446.2,954.6-540.8c100.1-43.3,205.5-108.2,235.3-146c108.2-137.9,219-224.4,392.1-308.3c156.8-75.7,202.8-83.8,419.1-83.8c221.7,0,262.3,8.1,421.8,86.5c110.9,56.8,229.9,143.3,311,229.9c73,78.4,192,170.4,265,205.5c454.3,210.9,786.9,608.4,895.1,1065.4c59.5,248.8,51.4,689.6-13.5,968.1c-73,302.9-251.5,665.2-457,941c-164.9,216.3-448.9,486.7-619.2,586.8c-64.9,40.6-83.8,70.3-94.6,178.5c-46,375.9-375.9,643.6-754.5,611.2c-94.6-8.1-194.7-21.7-224.4-29.8c-75.7-24.3-446.2,278.5-935.6,765.3c-389.4,389.4-689.6,746.4-973.5,1149.3L5028.3,2176l-2.7,221.7c0,251.5-51.4,373.2-208.2,524.6c-86.5,83.8-297.5,194.7-367.8,197.4c-18.9,0-132.5,86.5-254.2,192c-551.7,476-1081.7,670.6-1744.2,638.2l-327.2-16.2l-194.7,443.5c-108.2,243.4-221.8,467.8-254.2,497.6c-67.6,64.9-238,137.9-305.6,135.2C1342.5,5009.9,1283,4996.4,1237,4982.9z M2916.3,3349.6c105.5-21.6,300.2-94.6,438.1-162.3c200.1-97.4,302.9-173.1,519.2-378.6c259.6-246.1,275.8-256.9,392.1-256.9c100.1,0,129.8-13.5,165-64.9c40.6-62.2,40.6-78.4-2.7-200.1c-46-129.8-46-135.2,13.5-248.8c86.5-167.7,384-589.5,638.2-905.9C5504.2,602.1,6183-55,6723.8-452.5c246.1-183.9,332.6-200.1,489.5-91.9c127.1,86.5,192,86.5,248.8,0c35.2-51.4,37.9-83.8,16.2-146c-37.9-105.4,2.7-256.9,83.8-316.4c32.5-21.6,132.5-89.2,221.7-146c313.7-200.1,640.9-578.7,786.9-911.3c205.5-459.7,192-997.8-29.7-1319.6c-121.7-175.8-238-267.7-513.8-392.1c-183.9-86.5-238-127.1-300.2-221.7c-105.5-159.5-289.3-251.5-448.9-224.5c-116.3,21.6-262.3,140.6-378.6,316.4c-29.7,46-113.6,91.9-256.9,140.6c-240.7,83.8-632.8,305.6-1103.3,619.3c-267.7,178.5-343.4,219-438.1,221.7c-124.4,5.4-197.4,48.7-197.4,119c-2.7,83.8-70.3,159.6-397.5,432.7c-446.2,373.2-865.3,776.1-1287.2,1243.9L2865-741.8l-154.1-13.5c-240.7-21.7-321.8,62.2-227.1,240.7c21.6,43.3,40.6,108.2,40.6,146c0,43.3-124.4,259.6-335.3,576c-546.2,822.1-724.7,1235.8-754.5,1760.4c-10.8,151.5-29.7,232.6-64.9,283.9c-110.9,151.5-105.5,216.3,32.5,297.5c56.8,32.5,121.7,113.6,178.5,219.1C1853.6,3282,2302.5,3476.7,2916.3,3349.6z"/><path fill="#6f8f4e" d="M2048.3,2051.6c-37.9-56.8-37.9-86.5-10.8-208.2c27-113.6,62.2-170.4,162.3-267.7c210.9-208.2,481.3-232.6,727.4-70.3c119,78.4,246.1,305.6,246.1,438.1c0,97.3-70.3,175.8-156.8,175.8c-62.2,0-140.6-92-140.6-167.7c0-137.9-140.6-265-297.5-265c-116.3,0-270.4,151.4-270.4,262.3C2307.9,2105.7,2129.4,2176,2048.3,2051.6z"/><path fill="#6f8f4e" d="M4249.5,1034.8c-64.9-35.1-62.2-137.9,5.4-246.1c175.8-292-108.2-576-400.2-400.2c-121.7,75.7-216.3,70.3-254.2-13.5c-48.7-105.5,5.4-186.6,181.2-270.4c127.1-64.9,173.1-73,300.2-59.5c375.9,37.9,616.5,416.5,486.7,759.9C4487.5,1018.6,4368.5,1105.1,4249.5,1034.8z"/><path fill="#6f8f4e" d="M4363.1-1247.5c-21.6-27-29.7-89.2-21.6-178.5c16.2-170.4,132.5-338,294.8-424.5c167.7-89.3,432.7-75.7,581.4,29.7c148.7,102.8,232.5,238,248.8,397.5c13.5,156.8-21.6,216.3-127.1,216.3c-86.6,0-137.9-43.3-137.9-116.3c0-173.1-192-338-351.5-302.9c-108.2,24.3-210.9,135.2-232.6,254.2c-10.8,54.1-29.7,113.6-46,132.5C4536.1-1193.4,4403.6-1198.9,4363.1-1247.5z"/><path fill="#6f8f4e" d="M7856.9-2142.6c-73-51.4-75.7-127.1-8.1-224.4c81.1-113.6,94.6-202.8,43.3-308.3c-78.4-167.7-283.9-213.6-443.5-102.8c-105.4,75.7-181.2,70.3-238-13.5c-40.6-62.2-40.6-78.4-5.4-140.6c21.7-37.9,92-97.4,159.6-132.5c164.9-89.2,430-81.1,578.7,18.9c156.8,108.2,240.7,248.8,254.2,432.7c13.5,189.3-27,321.8-129.8,432.7C7981.3-2088.5,7943.4-2080.4,7856.9-2142.6z"/></g></g>
</svg>